HIERARCHY
ROOT Hips
{
	OFFSET 0.000000 71.427986 0.000000
	CHANNELS 6 Xposition Yposition Zposition Xrotation Yrotation Zrotation
	JOINT Pelvis
	{
		OFFSET 0.000000 0.000000 0.000000
		CHANNELS 3 Xrotation Yrotation Zrotation
		JOINT LeftUpLeg
		{
			OFFSET 6.797100 -2.508499 -1.318700
			CHANNELS 3 Xrotation Yrotation Zrotation
			JOINT LeftLeg
			{
				OFFSET 0.069008 -29.241863 0.690200
				CHANNELS 3 Xrotation Yrotation Zrotation
				JOINT LeftFoot
				{
					OFFSET -0.069008 -29.568123 -0.266800
					CHANNELS 3 Xrotation Yrotation Zrotation
					JOINT LeftToeBase
					{
						OFFSET 3.145500 -8.631000 16.059900
						CHANNELS 3 Xrotation Yrotation Zrotation
						End Site
						{
							OFFSET 0.000000 18.501587 0.000000
						}
					}
				}
			}
			JOINT Left_ShortSleeve
			{
				OFFSET 0.265923 -10.480953 1.153800
				CHANNELS 3 Xrotation Yrotation Zrotation
				End Site
				{
					OFFSET 1.725763 19.823879 0.000000
				}
			}
		}
		JOINT RightUpLeg
		{
			OFFSET -6.797100 -2.508499 -1.318700
			CHANNELS 3 Xrotation Yrotation Zrotation
			JOINT RightLeg
			{
				OFFSET -0.082453 -29.241932 0.688000
				CHANNELS 3 Xrotation Yrotation Zrotation
				JOINT RightFoot
				{
					OFFSET 0.082453 -29.568058 -0.264600
					CHANNELS 3 Xrotation Yrotation Zrotation
					JOINT RightToeBase
					{
						OFFSET -3.115300 -8.682800 16.113400
						CHANNELS 3 Xrotation Yrotation Zrotation
						End Site
						{
							OFFSET 0.000000 18.567114 0.000000
						}
					}
				}
			}
			JOINT Right_ShortSleeve
			{
				OFFSET -0.265923 -10.480953 1.153800
				CHANNELS 3 Xrotation Yrotation Zrotation
				End Site
				{
					OFFSET -1.725766 19.823910 0.000000
				}
			}
		}
	}
	JOINT Spine
	{
		OFFSET 0.000000 13.368103 0.470500
		CHANNELS 3 Xrotation Yrotation Zrotation
		JOINT Spine1
		{
			OFFSET 0.147000 13.837402 0.538800
			CHANNELS 3 Xrotation Yrotation Zrotation
			JOINT Spine2
			{
				OFFSET 0.168000 16.242897 -1.435500
				CHANNELS 3 Xrotation Yrotation Zrotation
				JOINT Neck
				{
					OFFSET 0.217200 18.631500 -1.679100
					CHANNELS 3 Xrotation Yrotation Zrotation
					JOINT Head
					{
						OFFSET 0.000000 6.599396 1.385900
						CHANNELS 3 Xrotation Yrotation Zrotation
						JOINT Hat
						{
							OFFSET -0.532200 27.220596 -10.096100
							CHANNELS 3 Xrotation Yrotation Zrotation
							End Site
							{
								OFFSET 0.000000 22.029861 0.000000
							}
						}
						JOINT HairD
						{
							OFFSET -10.777400 17.437393 -1.325900
							CHANNELS 3 Xrotation Yrotation Zrotation
							JOINT HairD1
							{
								OFFSET -3.290299 -11.051193 1.062200
								CHANNELS 3 Xrotation Yrotation Zrotation
								End Site
								{
									OFFSET 0.000000 11.579437 0.000000
								}
							}
						}
						JOINT HairB
						{
							OFFSET -10.777400 17.437393 1.467900
							CHANNELS 3 Xrotation Yrotation Zrotation
							JOINT HairB1
							{
								OFFSET -1.561200 -12.956299 3.590200
								CHANNELS 3 Xrotation Yrotation Zrotation
								End Site
								{
									OFFSET 0.000000 13.534866 0.000000
								}
							}
						}
						JOINT HairA
						{
							OFFSET 9.713100 17.437393 1.467900
							CHANNELS 3 Xrotation Yrotation Zrotation
							JOINT HairA1
							{
								OFFSET 1.561200 -12.956299 3.590200
								CHANNELS 3 Xrotation Yrotation Zrotation
								End Site
								{
									OFFSET 0.000000 13.534866 0.000000
								}
							}
						}
						JOINT HairC
						{
							OFFSET 9.713100 17.437393 -1.325900
							CHANNELS 3 Xrotation Yrotation Zrotation
							JOINT HairC1
							{
								OFFSET 3.290300 -11.051193 1.062200
								CHANNELS 3 Xrotation Yrotation Zrotation
								End Site
								{
									OFFSET 0.000000 11.579437 0.000000
								}
							}
						}
					}
				}
				JOINT LeftShoulder
				{
					OFFSET 5.101800 15.108002 -2.763700
					CHANNELS 3 Xrotation Yrotation Zrotation
					JOINT LeftArm
					{
						OFFSET 9.825497 2.506317 -1.597400
						CHANNELS 3 Xrotation Yrotation Zrotation
						JOINT LeftForeArm
						{
							OFFSET 21.966244 0.000000 0.000000
							CHANNELS 3 Xrotation Yrotation Zrotation
							JOINT LeftHand
							{
								OFFSET 33.879036 0.000000 0.000000
								CHANNELS 3 Xrotation Yrotation Zrotation
								JOINT LeftHandThumb1
								{
									OFFSET 6.715286 -2.359680 3.363841
									CHANNELS 3 Xrotation Yrotation Zrotation
									JOINT LeftHandThumb2
									{
										OFFSET 2.507072 -1.447464 1.447461
										CHANNELS 3 Xrotation Yrotation Zrotation
										JOINT LeftHandThumb3
										{
											OFFSET 2.898338 -1.673355 1.673357
											CHANNELS 3 Xrotation Yrotation Zrotation
											End Site
											{
												OFFSET -0.295959 3.727692 -0.131651
											}
										}
									}
								}
								JOINT LeftHandIndex1
								{
									OFFSET 14.190811 -0.254547 3.840278
									CHANNELS 3 Xrotation Yrotation Zrotation
									JOINT LeftHandIndex2
									{
										OFFSET 3.551727 0.000000 -0.000000
										CHANNELS 3 Xrotation Yrotation Zrotation
										JOINT LeftHandIndex3
										{
											OFFSET 2.894196 0.000000 0.000000
											CHANNELS 3 Xrotation Yrotation Zrotation
											End Site
											{
												OFFSET -1.000603 2.690872 0.366626
											}
										}
									}
								}
								JOINT LeftHandMiddle1
								{
									OFFSET 13.776489 0.000000 0.000000
									CHANNELS 3 Xrotation Yrotation Zrotation
									JOINT LeftHandMiddle2
									{
										OFFSET 3.438232 0.000000 0.000000
										CHANNELS 3 Xrotation Yrotation Zrotation
										JOINT LeftHandMiddle3
										{
											OFFSET 3.691551 0.000000 0.000000
											CHANNELS 3 Xrotation Yrotation Zrotation
											End Site
											{
												OFFSET -1.082298 3.499527 0.457670
											}
										}
									}
								}
								JOINT LeftHandRing1
								{
									OFFSET 13.966164 -0.268127 -3.067488
									CHANNELS 3 Xrotation Yrotation Zrotation
									JOINT LeftHandRing2
									{
										OFFSET 3.162567 0.000000 0.000000
										CHANNELS 3 Xrotation Yrotation Zrotation
										JOINT LeftHandRing3
										{
											OFFSET 3.324348 0.000000 0.000000
											CHANNELS 3 Xrotation Yrotation Zrotation
											End Site
											{
												OFFSET -0.861900 3.184998 0.405154
											}
										}
									}
								}
								JOINT LeftHandPinky1
								{
									OFFSET 13.131393 -0.168503 -5.746925
									CHANNELS 3 Xrotation Yrotation Zrotation
									JOINT LeftHandPinky2
									{
										OFFSET 2.849182 0.000000 0.000000
										CHANNELS 3 Xrotation Yrotation Zrotation
										JOINT LeftHandPinky3
										{
											OFFSET 2.805038 0.000000 0.000000
											CHANNELS 3 Xrotation Yrotation Zrotation
											End Site
											{
												OFFSET -0.882500 2.642609 0.325652
											}
										}
									}
								}
							}
							JOINT Left_Sleeve
							{
								OFFSET 6.592125 -0.646545 0.805568
								CHANNELS 3 Xrotation Yrotation Zrotation
								End Site
								{
									OFFSET -0.000179 20.275787 -0.000000
								}
							}
						}
					}
				}
				JOINT RightShoulder
				{
					OFFSET -5.731700 15.108002 -2.763700
					CHANNELS 3 Xrotation Yrotation Zrotation
					JOINT RightArm
					{
						OFFSET -9.825497 2.506317 -1.597400
						CHANNELS 3 Xrotation Yrotation Zrotation
						JOINT RightForeArm
						{
							OFFSET -21.966242 0.000000 0.000000
							CHANNELS 3 Xrotation Yrotation Zrotation
							JOINT RightHand
							{
								OFFSET -33.879032 0.000000 0.000000
								CHANNELS 3 Xrotation Yrotation Zrotation
								JOINT RightHandThumb1
								{
									OFFSET -6.715286 -2.359680 3.363841
									CHANNELS 3 Xrotation Yrotation Zrotation
									JOINT RightHandThumb2
									{
										OFFSET -2.507072 -1.447464 1.447461
										CHANNELS 3 Xrotation Yrotation Zrotation
										JOINT RightHandThumb3
										{
											OFFSET -2.898338 -1.673355 1.673357
											CHANNELS 3 Xrotation Yrotation Zrotation
											End Site
											{
												OFFSET 0.295959 3.727692 -0.131651
											}
										}
									}
								}
								JOINT RightHandIndex1
								{
									OFFSET -14.190811 -0.254547 3.840278
									CHANNELS 3 Xrotation Yrotation Zrotation
									JOINT RightHandIndex2
									{
										OFFSET -3.551727 0.000000 -0.000000
										CHANNELS 3 Xrotation Yrotation Zrotation
										JOINT RightHandIndex3
										{
											OFFSET -2.894196 0.000000 0.000000
											CHANNELS 3 Xrotation Yrotation Zrotation
											End Site
											{
												OFFSET 1.000603 2.690872 0.366626
											}
										}
									}
								}
								JOINT RightHandMiddle1
								{
									OFFSET -13.776489 0.000000 0.000000
									CHANNELS 3 Xrotation Yrotation Zrotation
									JOINT RightHandMiddle2
									{
										OFFSET -3.438232 0.000000 0.000000
										CHANNELS 3 Xrotation Yrotation Zrotation
										JOINT RightHandMiddle3
										{
											OFFSET -3.691551 0.000000 0.000000
											CHANNELS 3 Xrotation Yrotation Zrotation
											End Site
											{
												OFFSET 1.082298 3.499527 0.457670
											}
										}
									}
								}
								JOINT RightHandRing1
								{
									OFFSET -13.966164 -0.268127 -3.067488
									CHANNELS 3 Xrotation Yrotation Zrotation
									JOINT RightHandRing2
									{
										OFFSET -3.162567 0.000000 0.000000
										CHANNELS 3 Xrotation Yrotation Zrotation
										JOINT RightHandRing3
										{
											OFFSET -3.324348 0.000000 0.000000
											CHANNELS 3 Xrotation Yrotation Zrotation
											End Site
											{
												OFFSET 0.861900 3.184998 0.405154
											}
										}
									}
								}
								JOINT RightHandPinky1
								{
									OFFSET -13.131393 -0.168503 -5.746925
									CHANNELS 3 Xrotation Yrotation Zrotation
									JOINT RightHandPinky2
									{
										OFFSET -2.849182 0.000000 0.000000
										CHANNELS 3 Xrotation Yrotation Zrotation
										JOINT RightHandPinky3
										{
											OFFSET -2.805038 0.000000 0.000000
											CHANNELS 3 Xrotation Yrotation Zrotation
											End Site
											{
												OFFSET 0.882500 2.642609 0.325652
											}
										}
									}
								}
							}
							JOINT Right_Sleeve
							{
								OFFSET -6.592125 -0.646545 0.805568
								CHANNELS 3 Xrotation Yrotation Zrotation
								End Site
								{
									OFFSET 0.000179 20.275787 -0.000000
								}
							}
						}
					}
				}
				JOINT Bind_Right_JacketString
				{
					OFFSET -3.534800 11.969597 7.200700
					CHANNELS 3 Xrotation Yrotation Zrotation
					JOINT Bind_Right_JacketString1
					{
						OFFSET -0.319900 -6.102600 2.794100
						CHANNELS 3 Xrotation Yrotation Zrotation
						End Site
						{
							OFFSET 0.000000 6.719452 0.000000
						}
					}
				}
				JOINT Bind_Left_JacketString
				{
					OFFSET 2.904800 11.969597 7.200700
					CHANNELS 3 Xrotation Yrotation Zrotation
					JOINT Bind_Left_JacketString1
					{
						OFFSET 0.364800 -5.904503 3.186800
						CHANNELS 3 Xrotation Yrotation Zrotation
						End Site
						{
							OFFSET 0.000000 6.719513 0.000000
						}
					}
				}
				JOINT HairE
				{
					OFFSET 5.915200 17.612701 -11.592200
					CHANNELS 3 Xrotation Yrotation Zrotation
					JOINT HairE1
					{
						OFFSET 0.289200 -7.171898 -1.284500
						CHANNELS 3 Xrotation Yrotation Zrotation
						End Site
						{
							OFFSET 0.000000 7.291756 0.000000
						}
					}
				}
				JOINT HairF
				{
					OFFSET -0.864800 17.612701 -11.592200
					CHANNELS 3 Xrotation Yrotation Zrotation
					JOINT HairF1
					{
						OFFSET 0.000000 -14.087097 -2.127501
						CHANNELS 3 Xrotation Yrotation Zrotation
						End Site
						{
							OFFSET 0.000000 14.246841 0.000000
						}
					}
				}
				JOINT HairG
				{
					OFFSET -8.087700 17.612701 -11.592200
					CHANNELS 3 Xrotation Yrotation Zrotation
					JOINT HairG1
					{
						OFFSET -0.293600 -6.081398 -0.910100
						CHANNELS 3 Xrotation Yrotation Zrotation
						End Site
						{
							OFFSET 0.000000 6.156120 0.000000
						}
					}
				}
			}
		}
	}
	JOINT Pouch
	{
		OFFSET 0.000000 4.394501 10.847300
		CHANNELS 3 Xrotation Yrotation Zrotation
		End Site
		{
			OFFSET 0.000000 21.880577 0.000000
		}
	}
	JOINT Bag
	{
		OFFSET -13.229000 4.813004 -0.593300
		CHANNELS 3 Xrotation Yrotation Zrotation
		End Site
		{
			OFFSET 0.000000 21.880577 0.000000
		}
	}
	JOINT OccupyGuyFacialAnim_Joint
	{
		OFFSET 1.000000 -70.206398 -1.655000
		CHANNELS 3 Xrotation Yrotation Zrotation
		End Site
		{
			OFFSET 0.000000 21.880577 0.000000
		}
	}
}
MOTION
Frames: 4
Frame Time: 0.016667
0.054777 70.402435 1.346206 1.940141 1.917195 0.062497 -0.000000 -0.000000 -0.000000 -28.391286 9.309541 4.539970 57.685244 -4.765697 -0.550152 -2.128105 0.041766 0.906751 0.000000 0.000001 -0.000000 -0.000004 0.000000 -0.000000 -11.042579 -7.330531 1.601201 20.345506 2.743308 -3.605736 -11.995172 -0.016836 0.137637 0.000000 -0.000000 0.000000 -0.000001 0.000000 0.000000 6.169513 -1.284118 -0.178753 2.498163 -2.419467 1.232352 2.471486 -2.375263 1.342052 -0.476782 2.129173 -0.237603 -3.192701 4.531153 -1.881903 -0.000001 0.000000 0.000000 -0.000001 0.000000 0.000000 -0.000001 0.000000 0.000000 -0.000001 0.000000 0.000000 -0.000001 0.000000 0.000000 -0.000001 0.000000 0.000000 -0.000001 0.000000 0.000000 -0.000001 0.000000 0.000000 -0.000001 0.000000 0.000000 0.352377 -9.169222 -14.380745 9.011944 -24.442281 -57.554603 -0.000007 -11.061368 0.000006 3.271989 3.566763 -10.594365 5.264554 3.579096 10.848990 6.474977 8.367012 6.368029 0.000003 0.000002 0.000001 -2.233896 -4.155346 -17.702580 0.202679 1.529117 -15.099460 0.000002 0.000001 -0.000002 0.434911 4.486723 -26.650220 0.126208 1.210717 -11.901611 0.000002 0.000001 0.000001 1.633478 6.797651 -27.448944 0.330726 1.942272 -19.325004 0.000001 0.000001 -0.000004 3.038385 8.521953 -34.072699 0.278514 1.786561 -17.720747 0.000001 -0.000002 -0.000001 -0.000003 0.000001 0.000000 0.552466 4.135209 15.717220 3.061866 28.096188 49.279863 0.000001 23.795809 0.000018 -1.370123 0.937412 5.904091 12.604593 -3.092120 -3.819383 4.958753 -19.016357 -8.084341 0.000001 -0.000001 0.000002 -2.604811 4.000963 20.793326 0.395171 -1.879128 23.750081 -0.000000 0.000000 0.000004 -1.114230 -0.327547 22.216071 0.858152 -2.695806 35.310097 0.000002 -0.000001 -0.000001 -0.268985 -2.585335 24.354276 1.505975 -3.430903 47.387460 0.000001 -0.000000 -0.000004 -0.053539 -3.321025 29.341806 0.569535 -2.233599 28.606386 0.000003 0.000001 -0.000001 0.000001 0.000000 -0.000000 -0.000001 -0.000000 -0.000000 0.000000 -0.000000 -0.000000 -0.000001 -0.000000 -0.000000 -0.000001 -0.000000 -0.000000 -0.000001 -0.000000 -0.000000 0.000000 -0.000000 -0.000000 -0.000001 -0.000000 -0.000000 -0.000001 -0.000000 -0.000000 -0.000001 -0.000000 -0.000000 0.000000 -0.000000 -0.000000 -0.000000 -0.000000 -0.000000 -0.000000 -0.000000 -0.000000 -0.000000 -0.000000 -0.000000 
0.056150 70.402252 1.347950 1.939816 1.917583 0.062755 0.000000 -0.000000 0.000000 -28.391715 9.307976 4.542577 57.683099 -4.763657 -0.549804 -2.128521 0.043077 0.903514 -0.000003 0.000000 -0.000000 -0.000002 0.000000 -0.000000 -11.042252 -7.330474 1.599545 20.348370 2.742634 -3.605676 -11.998627 -0.015668 0.138934 0.000000 -0.000000 0.000000 0.000000 0.000000 -0.000000 6.169958 -1.282562 -0.178822 2.498235 -2.417830 1.232011 2.471637 -2.373643 1.341658 -0.476551 2.128852 -0.237603 -3.192829 4.526923 -1.879946 -0.000000 -0.000000 0.000000 -0.000000 -0.000000 0.000000 -0.000000 -0.000000 0.000000 -0.000000 -0.000000 -0.000000 -0.000001 -0.000000 -0.000000 -0.000000 -0.000000 -0.000000 -0.000001 -0.000000 -0.000000 -0.000000 -0.000000 0.000000 -0.000000 -0.000000 0.000000 0.352425 -9.169997 -14.382083 9.010346 -24.438431 -57.554398 -0.000004 -11.063231 -0.000019 3.257412 3.553991 -10.593097 5.263818 3.578402 10.848690 6.474957 8.367285 6.367674 0.000000 -0.000001 -0.000002 -2.233608 -4.154918 -17.701613 0.202645 1.529034 -15.098403 -0.000001 -0.000000 0.000002 0.434877 4.486601 -26.648618 0.126194 1.210628 -11.900811 -0.000003 0.000000 0.000001 1.633280 6.797393 -27.447284 0.330688 1.942165 -19.323689 0.000003 0.000003 -0.000001 3.037999 8.521610 -34.070572 0.278490 1.786457 -17.719526 0.000001 -0.000000 -0.000001 -0.000002 0.000001 0.000001 0.551999 4.136470 15.717548 3.065236 28.095288 49.277913 -0.000003 23.806300 -0.000003 -1.366993 0.936636 5.900775 12.604090 -3.090587 -3.818893 4.958337 -19.014782 -8.084010 0.000004 0.000001 0.000003 -2.604886 4.001883 20.791750 0.395117 -1.878998 23.748332 0.000001 0.000002 0.000002 -1.114368 -0.326936 22.214461 0.858074 -2.695684 35.308403 -0.000000 -0.000002 -0.000001 -0.268908 -2.585353 24.352607 1.505888 -3.430808 47.385773 0.000001 -0.000001 0.000001 -0.052957 -3.321968 29.340075 0.569472 -2.233478 28.604704 -0.000005 0.000001 0.000001 0.000002 -0.000000 0.000001 0.000000 0.000000 -0.000000 0.000000 0.000000 -0.000000 0.000000 0.000000 -0.000000 0.000000 0.000000 -0.000000 0.000000 0.000000 -0.000000 0.000000 0.000000 -0.000000 0.000000 0.000000 -0.000000 0.000000 0.000000 -0.000000 0.000000 0.000000 -0.000000 0.000000 0.000000 -0.000000 0.000000 -0.000000 0.000000 0.000000 -0.000000 0.000000 0.000000 -0.000000 0.000000 
0.736867 70.313049 2.188578 1.781213 2.107437 0.189878 0.000000 0.000000 0.000000 -28.619095 8.516045 5.860669 56.634344 -3.784178 -0.379404 -2.170674 0.689741 -0.924527 -0.000001 -0.000000 -0.000001 0.000003 0.000000 -0.000000 -10.600793 -7.303637 0.799061 21.235866 2.430557 -3.554452 -13.164088 0.557831 0.794255 0.000000 0.000000 -0.000000 -0.000000 0.000000 -0.000000 6.390687 -0.518484 -0.212925 2.528580 -1.613456 1.064342 2.545424 -1.578220 1.147881 -0.365332 1.971524 -0.237604 -3.183212 2.474958 -1.431030 0.000001 -0.000000 -0.000000 0.000001 -0.000000 -0.000000 0.000001 -0.000000 -0.000000 0.000001 -0.000000 -0.000000 0.000000 -0.000000 0.000000 0.000001 -0.000000 -0.000000 0.000000 -0.000000 0.000000 0.000001 -0.000000 -0.000000 0.000001 -0.000000 -0.000000 0.372028 -9.555641 -15.041967 8.216913 -22.540965 -57.446720 0.000009 -11.975299 0.000006 3.731463 3.720162 -10.301918 4.891369 3.235531 10.703794 6.454765 8.503269 6.197294 -0.000002 -0.000000 -0.000000 -2.093285 -3.936375 -17.208619 0.189379 1.479054 -14.593604 -0.000001 0.000000 -0.000002 0.414363 4.427927 -25.861099 0.117930 1.170722 -11.503019 0.000002 0.000000 0.000002 1.539063 6.674501 -26.628329 0.309126 1.879613 -18.677427 -0.000001 0.000002 -0.000004 2.853483 8.358698 -33.022855 0.260314 1.728585 -17.127015 -0.000000 -0.000002 -0.000003 0.000001 -0.000000 -0.000000 0.321546 4.755068 15.877632 5.691792 26.887835 47.980716 -0.000008 30.206600 -0.000002 0.161391 0.516855 4.276206 12.348109 -2.339945 -3.584498 4.747145 -18.240222 -7.943260 0.000002 -0.000001 -0.000001 -2.640437 4.449041 20.018087 0.367985 -1.816099 22.906674 -0.000000 0.000001 0.000004 -1.172902 -0.021095 21.413920 0.819461 -2.640395 34.478969 -0.000002 -0.000001 0.000002 -0.236781 -2.596217 23.523566 1.456686 -3.384979 46.558206 -0.000000 -0.000000 -0.000001 0.223282 -3.787755 28.484148 0.537722 -2.174291 27.779086 0.000004 -0.000000 0.000000 0.000002 -0.000000 -0.000001 -0.000001 -0.000000 -0.000000 0.000000 -0.000000 -0.000000 -0.000001 -0.000000 -0.000000 -0.000001 -0.000000 -0.000000 -0.000001 -0.000000 -0.000000 0.000000 -0.000000 -0.000000 -0.000001 -0.000000 -0.000000 -0.000001 -0.000000 -0.000000 -0.000001 -0.000000 -0.000000 0.000000 -0.000000 -0.000000 0.000000 0.000000 0.000000 0.000000 0.000000 0.000000 0.000000 0.000000 0.000000 
1.485639 70.208374 3.048423 1.665023 2.265265 0.327251 0.000000 -0.000000 -0.000000 -28.529854 7.770096 7.227382 54.863225 -2.268981 -0.172775 -2.265580 1.353999 -3.079445 -0.000001 -0.000000 0.000000 0.000001 -0.000001 -0.000000 -10.149394 -7.293234 -0.102351 22.023469 2.156200 -3.448905 -14.261401 1.177656 1.495953 0.000000 -0.000000 -0.000000 0.000000 0.000000 -0.000000 6.608938 0.229852 -0.257383 2.561885 -0.802064 0.887917 2.621668 -0.776055 0.944272 -0.268469 1.815120 -0.237641 -3.233342 0.353598 -1.007018 0.000001 0.000000 -0.000000 0.000001 0.000000 -0.000000 0.000001 0.000000 0.000000 0.000001 0.000000 -0.000000 0.000001 -0.000000 0.000000 0.000001 0.000000 -0.000000 0.000001 -0.000000 0.000000 0.000001 0.000000 -0.000000 0.000001 0.000000 -0.000000 0.371283 -9.985387 -15.641499 7.405626 -20.584763 -57.407159 -0.000003 -12.913636 -0.000018 4.214056 3.996366 -10.057975 4.508195 2.883744 10.550088 6.434247 8.643678 6.022191 0.000002 -0.000001 -0.000000 -1.948694 -3.694171 -16.699990 0.176226 1.427529 -14.074309 -0.000002 -0.000001 -0.000002 0.393835 4.367406 -25.050979 0.109694 1.129611 -11.093772 0.000004 0.000001 0.000001 1.442354 6.540914 -25.786636 0.287694 1.815016 -18.012641 -0.000003 0.000001 -0.000002 2.655548 8.164946 -31.946851 0.242250 1.668853 -16.517477 -0.000003 -0.000001 -0.000006 0.000001 -0.000000 -0.000001 0.086860 5.408576 15.971889 7.876276 25.924915 46.850081 0.000009 35.801113 0.000011 1.774342 0.205073 2.579167 12.069516 -1.522703 -3.323963 4.515100 -17.396364 -7.788258 -0.000003 0.000000 -0.000000 -2.666694 4.938888 19.175001 0.339461 -1.747103 21.989237 -0.000002 -0.000001 0.000004 -1.228155 0.314518 20.541871 0.778314 -2.579484 33.574973 -0.000004 -0.000003 -0.000003 -0.203304 -2.609175 22.619797 1.403819 -3.334209 45.656236 -0.000001 -0.000004 -0.000003 0.507729 -4.304794 27.552428 0.504097 -2.109254 26.879228 -0.000001 0.000003 -0.000003 0.000001 0.000002 -0.000001 -0.000001 -0.000000 0.000000 -0.000001 -0.000000 -0.000000 -0.000001 -0.000000 0.000000 -0.000001 -0.000000 0.000000 -0.000001 -0.000000 0.000000 -0.000001 -0.000000 -0.000000 -0.000001 -0.000000 0.000000 -0.000001 -0.000000 0.000000 -0.000001 -0.000000 0.000000 -0.000001 -0.000000 -0.000000 0.000000 -0.000000 -0.000000 0.000000 -0.000000 -0.000000 0.000000 -0.000000 -0.000000 
